<svg version="1.1" xmlns="http://www.w3.org/2000/svg" xmlns:xlink="http://www.w3.org/1999/xlink" width="800px" height="800px" viewBox="0,0,256,256"><g fill="#ffffff" fill-rule="nonzero" stroke="none" stroke-width="1" stroke-linecap="butt" stroke-linejoin="miter" stroke-miterlimit="10" stroke-dasharray="" stroke-dashoffset="0" font-family="none" font-weight="none" font-size="none" text-anchor="none" style="mix-blend-mode: normal"><g transform="translate(0,-0.00058) scale(1.34774,1.34774)"><g><g><g><path d="M164.613,56.66l-32.354,-47.32c-2.371,-3.467 -7.106,-4.357 -10.576,-1.986c-3.469,2.374 -4.357,7.106 -1.986,10.576l26.437,38.659h-102.319l26.432,-38.659c2.374,-3.469 1.484,-8.202 -1.986,-10.576c-3.469,-2.374 -8.204,-1.481 -10.573,1.986l-32.354,47.32c-14.086,0.715 -25.334,12.366 -25.334,26.63c0,7.033 2.787,13.69 7.74,18.682l10.708,63.311c0.378,10.343 8.91,18.641 19.341,18.641h114.367c10.431,0 18.963,-8.296 19.341,-18.641l10.708,-63.308c4.953,-4.994 7.743,-11.651 7.743,-18.684c-0.001,-14.262 -11.249,-25.916 -25.335,-26.631zM170.373,92.179l-2.252,1.811l-11.722,69.306l-0.107,1.268c0,2.28 -1.854,4.139 -4.137,4.139h-114.366c-2.283,0 -4.139,-1.856 -4.139,-4.139l-11.829,-70.572l-2.25,-1.811c-2.77,-2.229 -4.357,-5.471 -4.357,-8.894c0,-6.333 5.148,-11.481 11.476,-11.481h136.558c6.328,0 11.476,5.151 11.476,11.481c0.006,3.426 -1.581,6.668 -4.351,8.892z"></path><path d="M131.793,91.687c-4.202,0 -7.609,3.406 -7.609,7.609v53.333c0,4.202 3.406,7.609 7.609,7.609c4.203,0 7.609,-3.406 7.609,-7.609v-53.334c-0.001,-4.202 -3.407,-7.608 -7.609,-7.608z"></path><path d="M94.975,91.687c-4.202,0 -7.609,3.406 -7.609,7.609v53.333c0,4.202 3.406,7.609 7.609,7.609c4.202,0 7.609,-3.406 7.609,-7.609v-53.334c0,-4.202 -3.407,-7.608 -7.609,-7.608z"></path><path d="M58.152,91.687c-4.202,0 -7.609,3.406 -7.609,7.609v53.333c0,4.202 3.406,7.609 7.609,7.609c4.203,0 7.609,-3.406 7.609,-7.609v-53.334c0.002,-4.202 -3.406,-7.608 -7.609,-7.608z"></path></g></g></g></g></g></svg>